<svg xmlns="http://www.w3.org/2000/svg" xmlns:xlink="http://www.w3.org/1999/xlink" width="139" zoomAndPan="magnify" viewBox="0 0 104.25 59.249999" height="79" preserveAspectRatio="xMidYMid meet" version="1.0"><defs><clipPath id="7ed254bcd3"><path d="M 77.105469 24.78125 L 91.140625 24.78125 L 91.140625 38.816406 L 77.105469 38.816406 Z M 77.105469 24.78125 " clip-rule="nonzero"/></clipPath><clipPath id="b95cef884a"><path d="M 84.125 24.78125 C 80.246094 24.78125 77.105469 27.925781 77.105469 31.800781 C 77.105469 35.675781 80.246094 38.816406 84.125 38.816406 C 88 38.816406 91.140625 35.675781 91.140625 31.800781 C 91.140625 27.925781 88 24.78125 84.125 24.78125 Z M 84.125 24.78125 " clip-rule="nonzero"/></clipPath><clipPath id="091eae6691"><path d="M 0.105469 0.78125 L 14.140625 0.78125 L 14.140625 14.816406 L 0.105469 14.816406 Z M 0.105469 0.78125 " clip-rule="nonzero"/></clipPath><clipPath id="271000b5a6"><path d="M 7.125 0.78125 C 3.246094 0.78125 0.105469 3.925781 0.105469 7.800781 C 0.105469 11.675781 3.246094 14.816406 7.125 14.816406 C 11 14.816406 14.140625 11.675781 14.140625 7.800781 C 14.140625 3.925781 11 0.78125 7.125 0.78125 Z M 7.125 0.78125 " clip-rule="nonzero"/></clipPath><clipPath id="1cfdc0de05"><rect x="0" width="15" y="0" height="15"/></clipPath></defs><path fill="#698eb9" d="M 92.183594 50.9375 C 97.644531 36.796875 97.636719 22.289062 92.164062 7.816406 C 91.777344 6.792969 90.699219 6.175781 89.578125 6.289062 C 74.871094 7.898438 59.515625 19.675781 56.921875 21.738281 L 56.921875 25.285156 L 66.875 22.523438 C 67.449219 22.363281 68.019531 22.695312 68.175781 23.257812 C 68.332031 23.816406 68.003906 24.402344 67.441406 24.554688 L 56.921875 27.476562 L 56.921875 28.289062 L 67.160156 28.289062 C 67.742188 28.289062 68.21875 28.761719 68.21875 29.347656 C 68.21875 29.929688 67.746094 30.40625 67.160156 30.40625 L 56.921875 30.40625 L 56.921875 31.222656 L 67.441406 34.144531 C 68.003906 34.296875 68.332031 34.882812 68.175781 35.441406 C 68.042969 35.910156 67.625 36.214844 67.15625 36.214844 C 67.066406 36.214844 66.96875 36.203125 66.871094 36.175781 L 56.917969 33.414062 L 56.917969 36.996094 C 59.625 39.136719 74.941406 50.816406 89.585938 52.445312 C 90.714844 52.570312 91.792969 51.953125 92.183594 50.9375 Z M 92.183594 50.9375 " fill-opacity="1" fill-rule="nonzero"/><path fill="#698eb9" d="M 80.625 52.574219 C 72.734375 50 65.515625 45.675781 60.785156 42.441406 C 64.707031 47.328125 70.945312 54.011719 77.191406 56.164062 C 77.8125 56.375 78.484375 56.308594 79.078125 55.972656 C 79.679688 55.632812 80.105469 55.054688 80.246094 54.390625 Z M 80.625 52.574219 " fill-opacity="1" fill-rule="nonzero"/><path fill="#698eb9" d="M 17.691406 52.578125 C 17.808594 53.175781 17.925781 53.777344 18.066406 54.371094 C 18.21875 55.0625 18.65625 55.644531 19.269531 55.984375 C 19.855469 56.3125 20.515625 56.378906 21.128906 56.167969 C 27.375 54.011719 33.617188 47.328125 37.550781 42.4375 C 32.816406 45.675781 25.589844 50.003906 17.691406 52.578125 Z M 17.691406 52.578125 " fill-opacity="1" fill-rule="nonzero"/><path fill="#698eb9" d="M 84.46875 54.394531 L 84.617188 53.6875 C 83.960938 53.535156 83.304688 53.378906 82.652344 53.195312 L 82.3125 54.832031 C 82.207031 55.324219 82 55.78125 81.742188 56.203125 C 82.28125 56.300781 82.820312 56.253906 83.300781 55.976562 C 83.898438 55.636719 84.328125 55.058594 84.46875 54.394531 Z M 84.46875 54.394531 " fill-opacity="1" fill-rule="nonzero"/><path fill="#698eb9" d="M 43.566406 36.402344 L 54.765625 36.402344 L 54.785156 22.292969 L 43.53125 22.292969 Z M 43.566406 36.402344 " fill-opacity="1" fill-rule="nonzero"/><path fill="#698eb9" d="M 18.085938 4.363281 C 17.953125 5.019531 17.828125 5.589844 17.71875 6.15625 C 25.609375 8.722656 32.816406 13.046875 37.539062 16.28125 C 33.621094 11.390625 27.390625 4.699219 21.148438 2.5625 C 20.53125 2.351562 19.867188 2.421875 19.277344 2.757812 C 18.664062 3.101562 18.230469 3.6875 18.085938 4.363281 Z M 18.085938 4.363281 " fill-opacity="1" fill-rule="nonzero"/><path fill="#698eb9" d="M 41.414062 33.464844 L 31.660156 36.175781 C 31.5625 36.203125 31.472656 36.214844 31.375 36.214844 C 30.910156 36.214844 30.488281 35.910156 30.355469 35.441406 C 30.199219 34.882812 30.527344 34.296875 31.089844 34.140625 L 41.394531 31.277344 C 41.394531 30.976562 41.390625 30.6875 41.390625 30.402344 L 31.375 30.402344 C 30.792969 30.402344 30.316406 29.929688 30.316406 29.34375 C 30.316406 28.761719 30.789062 28.285156 31.375 28.285156 L 41.378906 28.285156 C 41.378906 27.984375 41.378906 27.6875 41.375 27.40625 L 31.089844 24.550781 C 30.527344 24.398438 30.199219 23.8125 30.355469 23.25 C 30.511719 22.691406 31.085938 22.359375 31.65625 22.515625 L 41.375 25.21875 C 41.378906 24.480469 41.382812 23.847656 41.394531 23.320312 L 41.390625 21.742188 C 38.800781 19.683594 23.441406 7.90625 8.738281 6.289062 C 8.640625 6.28125 8.542969 6.273438 8.449219 6.273438 C 7.421875 6.273438 6.496094 6.878906 6.144531 7.816406 C 0.671875 22.289062 0.667969 36.796875 6.125 50.9375 C 6.519531 51.953125 7.601562 52.5625 8.714844 52.445312 C 23.425781 50.804688 38.820312 39.027344 41.425781 36.957031 C 41.429688 35.695312 41.421875 34.542969 41.414062 33.464844 Z M 41.414062 33.464844 " fill-opacity="1" fill-rule="nonzero"/><path fill="#698eb9" d="M 96.386719 7.8125 C 96.015625 6.8125 94.933594 6.171875 93.789062 6.289062 C 93.773438 6.289062 93.761719 6.296875 93.75 6.296875 C 93.902344 6.539062 94.039062 6.792969 94.140625 7.074219 C 99.800781 22.050781 99.804688 37.0625 94.15625 51.699219 C 94.050781 51.96875 93.882812 52.191406 93.730469 52.429688 C 93.757812 52.433594 93.785156 52.4375 93.808594 52.4375 C 94.964844 52.574219 96.019531 51.9375 96.40625 50.933594 C 101.875 36.792969 101.871094 22.285156 96.386719 7.8125 Z M 96.386719 7.8125 " fill-opacity="1" fill-rule="nonzero"/><path fill="#698eb9" d="M 80.605469 6.152344 C 80.488281 5.550781 80.371094 4.957031 80.242188 4.359375 C 80.097656 3.683594 79.667969 3.101562 79.0625 2.753906 C 78.472656 2.414062 77.8125 2.351562 77.179688 2.558594 C 70.941406 4.691406 64.71875 11.363281 60.804688 16.257812 C 65.523438 13.035156 72.726562 8.714844 80.605469 6.152344 Z M 80.605469 6.152344 " fill-opacity="1" fill-rule="nonzero"/><path fill="#698eb9" d="M 82.3125 3.925781 C 82.425781 4.460938 82.53125 5 82.636719 5.539062 C 83.289062 5.355469 83.949219 5.203125 84.605469 5.042969 C 84.558594 4.820312 84.519531 4.597656 84.46875 4.375 C 84.324219 3.6875 83.890625 3.105469 83.28125 2.761719 C 82.792969 2.480469 82.253906 2.433594 81.726562 2.535156 C 81.992188 2.957031 82.203125 3.421875 82.3125 3.925781 Z M 82.3125 3.925781 " fill-opacity="1" fill-rule="nonzero"/><g clip-path="url(#7ed254bcd3)"><g clip-path="url(#b95cef884a)"><g transform="matrix(1, 0, 0, 1, 77, 24)"><g clip-path="url(#1cfdc0de05)"><g clip-path="url(#091eae6691)"><g clip-path="url(#271000b5a6)"><path fill="#698eb9" d="M 0.105469 0.78125 L 14.140625 0.78125 L 14.140625 14.816406 L 0.105469 14.816406 Z M 0.105469 0.78125 " fill-opacity="1" fill-rule="nonzero"/></g></g></g></g></g></g></svg>