<svg xmlns="http://www.w3.org/2000/svg" xmlns:xlink="http://www.w3.org/1999/xlink" width="167" zoomAndPan="magnify" viewBox="0 0 125.25 111.749997" height="149" preserveAspectRatio="xMidYMid meet" version="1.0"><defs><clipPath id="74e1672da6"><path d="M 54.925781 13.613281 L 69.054688 13.613281 L 69.054688 27.742188 L 54.925781 27.742188 Z M 54.925781 13.613281 " clip-rule="nonzero"/></clipPath><clipPath id="c6079f30f0"><path d="M 61.992188 13.613281 C 58.089844 13.613281 54.925781 16.773438 54.925781 20.675781 C 54.925781 24.578125 58.089844 27.742188 61.992188 27.742188 C 65.890625 27.742188 69.054688 24.578125 69.054688 20.675781 C 69.054688 16.773438 65.890625 13.613281 61.992188 13.613281 Z M 61.992188 13.613281 " clip-rule="nonzero"/></clipPath><clipPath id="b042c4c3fb"><path d="M 0.925781 0.613281 L 15.054688 0.613281 L 15.054688 14.742188 L 0.925781 14.742188 Z M 0.925781 0.613281 " clip-rule="nonzero"/></clipPath><clipPath id="6e2d5d85bf"><path d="M 7.992188 0.613281 C 4.089844 0.613281 0.925781 3.773438 0.925781 7.675781 C 0.925781 11.578125 4.089844 14.742188 7.992188 14.742188 C 11.890625 14.742188 15.054688 11.578125 15.054688 7.675781 C 15.054688 3.773438 11.890625 0.613281 7.992188 0.613281 Z M 7.992188 0.613281 " clip-rule="nonzero"/></clipPath><clipPath id="e86456cbda"><rect x="0" width="16" y="0" height="15"/></clipPath></defs><path fill="#698eb9" d="M 118.398438 75.085938 C 118.386719 74.40625 118.203125 73.773438 117.84375 73.195312 C 117.488281 72.613281 117.007812 72.167969 116.402344 71.851562 L 92.363281 59.195312 L 92.363281 34.933594 L 96.542969 29.699219 L 64.308594 3.667969 C 63.976562 3.398438 63.613281 3.195312 63.210938 3.054688 C 62.808594 2.910156 62.398438 2.839844 61.972656 2.839844 C 61.546875 2.839844 61.132812 2.910156 60.730469 3.054688 C 60.332031 3.195312 59.964844 3.398438 59.632812 3.667969 L 27.402344 29.699219 L 31.578125 34.871094 L 31.578125 59.292969 L 7.441406 73.089844 C 6.863281 73.421875 6.40625 73.875 6.074219 74.453125 C 5.738281 75.027344 5.570312 75.648438 5.570312 76.316406 L 5.570312 101.109375 L 2.484375 101.109375 L 2.484375 108.546875 L 121.496094 108.546875 L 121.496094 101.109375 L 118.398438 101.109375 Z M 31.617188 101.121094 L 20.25 101.121094 L 20.25 83.457031 L 31.617188 83.457031 Z M 74.414062 101.121094 L 49.59375 101.121094 L 49.59375 84.671875 C 49.59375 83.855469 49.671875 83.050781 49.832031 82.25 C 49.988281 81.453125 50.226562 80.679688 50.535156 79.925781 C 50.847656 79.175781 51.230469 78.460938 51.683594 77.78125 C 52.132812 77.105469 52.648438 76.480469 53.222656 75.902344 C 53.800781 75.328125 54.425781 74.816406 55.101562 74.363281 C 55.78125 73.910156 56.492188 73.527344 57.246094 73.214844 C 57.996094 72.90625 58.773438 72.671875 59.570312 72.511719 C 60.371094 72.351562 61.175781 72.273438 61.988281 72.273438 C 62.804688 72.273438 63.609375 72.351562 64.410156 72.511719 C 65.207031 72.671875 65.980469 72.90625 66.734375 73.214844 C 67.488281 73.527344 68.199219 73.910156 68.878906 74.363281 C 69.554688 74.816406 70.179688 75.328125 70.757812 75.902344 C 71.332031 76.480469 71.847656 77.105469 72.296875 77.78125 C 72.75 78.460938 73.132812 79.175781 73.445312 79.925781 C 73.753906 80.679688 73.992188 81.453125 74.148438 82.25 C 74.308594 83.050781 74.386719 83.855469 74.386719 84.671875 Z M 73.234375 54.632812 L 50.734375 54.632812 C 50.324219 54.632812 49.925781 54.554688 49.546875 54.394531 C 49.167969 54.238281 48.832031 54.015625 48.542969 53.722656 C 48.25 53.433594 48.027344 53.097656 47.871094 52.71875 C 47.710938 52.339844 47.632812 51.941406 47.632812 51.53125 C 47.632812 51.121094 47.710938 50.726562 47.871094 50.347656 C 48.027344 49.964844 48.25 49.632812 48.542969 49.339844 C 48.832031 49.050781 49.167969 48.828125 49.546875 48.667969 C 49.925781 48.511719 50.324219 48.433594 50.734375 48.433594 L 73.246094 48.433594 C 73.65625 48.433594 74.054688 48.511719 74.433594 48.667969 C 74.8125 48.828125 75.148438 49.050781 75.4375 49.339844 C 75.730469 49.632812 75.953125 49.964844 76.109375 50.347656 C 76.269531 50.726562 76.347656 51.121094 76.347656 51.53125 C 76.347656 51.941406 76.269531 52.339844 76.109375 52.71875 C 75.953125 53.097656 75.730469 53.433594 75.4375 53.722656 C 75.148438 54.015625 74.8125 54.238281 74.433594 54.394531 C 74.054688 54.554688 73.65625 54.632812 73.246094 54.632812 Z M 73.234375 39.753906 L 50.734375 39.753906 C 50.324219 39.753906 49.925781 39.675781 49.546875 39.519531 C 49.167969 39.363281 48.832031 39.136719 48.542969 38.847656 C 48.25 38.554688 48.027344 38.222656 47.871094 37.839844 C 47.710938 37.460938 47.632812 37.066406 47.632812 36.65625 C 47.632812 36.246094 47.710938 35.847656 47.871094 35.46875 C 48.027344 35.089844 48.25 34.753906 48.542969 34.464844 C 48.832031 34.171875 49.167969 33.949219 49.546875 33.792969 C 49.925781 33.636719 50.324219 33.554688 50.734375 33.554688 L 73.246094 33.554688 C 73.65625 33.554688 74.054688 33.636719 74.433594 33.792969 C 74.8125 33.949219 75.148438 34.171875 75.4375 34.464844 C 75.730469 34.753906 75.953125 35.089844 76.109375 35.46875 C 76.269531 35.847656 76.347656 36.246094 76.347656 36.65625 C 76.347656 37.066406 76.269531 37.460938 76.109375 37.839844 C 75.953125 38.222656 75.730469 38.554688 75.4375 38.847656 C 75.148438 39.136719 74.8125 39.363281 74.433594 39.519531 C 74.054688 39.675781 73.65625 39.753906 73.246094 39.753906 Z M 104.140625 101.121094 L 92.363281 101.121094 L 92.363281 83.457031 L 104.140625 83.457031 Z M 104.140625 101.121094 " fill-opacity="1" fill-rule="nonzero"/><g clip-path="url(#74e1672da6)"><g clip-path="url(#c6079f30f0)"><g transform="matrix(1, 0, 0, 1, 54, 13)"><g clip-path="url(#e86456cbda)"><g clip-path="url(#b042c4c3fb)"><g clip-path="url(#6e2d5d85bf)"><path fill="#698eb9" d="M 0.925781 0.613281 L 15.054688 0.613281 L 15.054688 14.742188 L 0.925781 14.742188 Z M 0.925781 0.613281 " fill-opacity="1" fill-rule="nonzero"/></g></g></g></g></g></g></svg>