<svg xmlns="http://www.w3.org/2000/svg" xmlns:xlink="http://www.w3.org/1999/xlink" width="87" zoomAndPan="magnify" viewBox="0 0 65.25 93.749997" height="125" preserveAspectRatio="xMidYMid meet" version="1.0"><defs><clipPath id="c1f9d8e1bd"><path d="M 25.171875 18.355469 L 39.222656 18.355469 L 39.222656 32.40625 L 25.171875 32.40625 Z M 25.171875 18.355469 " clip-rule="nonzero"/></clipPath><clipPath id="ff77567446"><path d="M 32.195312 18.355469 C 28.316406 18.355469 25.171875 21.5 25.171875 25.382812 C 25.171875 29.261719 28.316406 32.40625 32.195312 32.40625 C 36.078125 32.40625 39.222656 29.261719 39.222656 25.382812 C 39.222656 21.5 36.078125 18.355469 32.195312 18.355469 Z M 32.195312 18.355469 " clip-rule="nonzero"/></clipPath><clipPath id="fcb99141ab"><path d="M 0.171875 0.355469 L 14.222656 0.355469 L 14.222656 14.40625 L 0.171875 14.40625 Z M 0.171875 0.355469 " clip-rule="nonzero"/></clipPath><clipPath id="280adbfeed"><path d="M 7.195312 0.355469 C 3.316406 0.355469 0.171875 3.5 0.171875 7.382812 C 0.171875 11.261719 3.316406 14.40625 7.195312 14.40625 C 11.078125 14.40625 14.222656 11.261719 14.222656 7.382812 C 14.222656 3.5 11.078125 0.355469 7.195312 0.355469 Z M 7.195312 0.355469 " clip-rule="nonzero"/></clipPath><clipPath id="9d7880fb8c"><rect x="0" width="15" y="0" height="15"/></clipPath></defs><path fill="#698eb9" d="M 43.703125 36.046875 C 40.828125 37.625 36.15625 38.726562 31.558594 38.714844 C 27.753906 38.707031 23.980469 37.9375 21.289062 36.054688 C 21.085938 36.527344 20.835938 37.003906 20.535156 37.476562 C 17.683594 41.960938 14.035156 50.71875 10.617188 58.925781 C 7.484375 66.433594 4.550781 73.480469 2.554688 76.453125 L 2.847656 76.648438 C 7.613281 79.816406 8.949219 80.703125 15.148438 80.714844 C 15.90625 78.410156 16.59375 75.660156 17.234375 73.113281 C 17.78125 70.917969 18.296875 68.875 18.792969 67.363281 C 20.136719 63.265625 21.8125 57.160156 23.027344 51.277344 C 23.957031 46.746094 24.609375 42.351562 24.609375 39.105469 C 24.609375 38.851562 24.816406 38.648438 25.070312 38.648438 C 25.324219 38.648438 25.53125 38.851562 25.53125 39.105469 C 25.53125 42.402344 24.871094 46.871094 23.921875 51.460938 C 22.707031 57.386719 21.015625 63.527344 19.667969 67.648438 C 19.179688 69.121094 18.671875 71.160156 18.125 73.335938 C 17.078125 77.507812 15.902344 82.21875 14.457031 84.777344 C 14.207031 85.222656 14.082031 85.644531 14.0625 86.046875 C 14.035156 86.675781 14.277344 87.273438 14.710938 87.820312 C 15.175781 88.402344 15.847656 88.933594 16.652344 89.382812 C 18.546875 90.457031 21.121094 91.117188 23.332031 91.214844 C 30.394531 91.523438 31.765625 87.0625 32.039062 80.957031 C 32.101562 79.46875 32.101562 77.828125 32.101562 76.132812 L 32.101562 46.523438 C 32.101562 46.269531 32.308594 46.0625 32.5625 46.0625 C 32.816406 46.0625 33.023438 46.269531 33.023438 46.523438 L 33.023438 76.132812 C 33.023438 77.804688 33.023438 79.425781 32.953125 80.996094 C 32.914062 81.859375 32.855469 82.695312 32.765625 83.492188 C 33.070312 87.507812 35.949219 89.621094 39.324219 90.363281 C 41.359375 90.816406 43.578125 90.769531 45.542969 90.355469 C 47.472656 89.945312 49.140625 89.171875 50.105469 88.15625 C 50.988281 87.222656 51.261719 86.0625 50.535156 84.777344 C 49.089844 82.21875 47.90625 77.507812 46.863281 73.335938 C 46.316406 71.15625 45.808594 69.121094 45.324219 67.644531 C 43.972656 63.527344 42.285156 57.382812 41.066406 51.457031 C 40.121094 46.863281 39.460938 42.402344 39.460938 39.101562 C 39.460938 38.847656 39.664062 38.640625 39.917969 38.640625 C 40.171875 38.640625 40.378906 38.847656 40.378906 39.101562 C 40.378906 42.34375 41.03125 46.742188 41.964844 51.273438 C 43.171875 57.15625 44.855469 63.257812 46.199219 67.359375 C 46.691406 68.867188 47.207031 70.914062 47.757812 73.113281 C 48.398438 75.660156 49.082031 78.40625 49.839844 80.714844 C 56.039062 80.703125 57.378906 79.816406 62.140625 76.648438 L 62.433594 76.453125 C 60.4375 73.480469 57.5 66.429688 54.375 58.925781 C 50.953125 50.71875 47.304688 41.960938 44.457031 37.476562 C 44.148438 36.996094 43.898438 36.519531 43.699219 36.039062 Z M 43.03125 33.308594 C 43.082031 33.925781 43.195312 34.546875 43.382812 35.164062 C 40.648438 36.714844 36.078125 37.804688 31.558594 37.792969 C 27.824219 37.785156 24.148438 37.023438 21.617188 35.152344 C 21.8125 34.503906 21.925781 33.855469 21.96875 33.207031 C 24.628906 34.984375 28.140625 35.738281 31.667969 35.773438 C 35.914062 35.8125 40.195312 34.808594 43.03125 33.304688 Z M 21.980469 32.089844 C 24.519531 34.019531 28.078125 34.828125 31.675781 34.863281 C 35.984375 34.902344 40.3125 33.839844 43.003906 32.269531 C 43.09375 29.472656 44.351562 26.707031 45.601562 23.945312 C 47.203125 20.421875 48.800781 16.914062 47.738281 13.519531 C 47.136719 11.589844 46.710938 10.144531 46.433594 8.472656 C 46.171875 6.878906 46.042969 5.105469 46.035156 2.542969 L 43.023438 1.757812 C 42.75 2.910156 42.667969 4.023438 42.59375 5.042969 C 42.359375 8.21875 42.183594 10.570312 37.246094 11.25 C 36.140625 11.402344 35.074219 12.117188 34.277344 13.109375 C 33.472656 14.113281 32.957031 15.382812 32.957031 16.632812 C 32.957031 16.886719 32.75 17.09375 32.496094 17.09375 C 32.242188 17.09375 32.035156 16.886719 32.035156 16.632812 C 32.035156 15.382812 31.519531 14.113281 30.714844 13.109375 C 29.917969 12.121094 28.855469 11.402344 27.746094 11.25 C 22.8125 10.570312 22.636719 8.21875 22.398438 5.042969 C 22.324219 4.023438 22.242188 2.914062 21.96875 1.757812 L 18.957031 2.542969 C 18.949219 5.0625 18.828125 6.820312 18.566406 8.398438 C 18.300781 10.046875 17.890625 11.476562 17.300781 13.351562 C 16.230469 16.792969 17.824219 20.34375 19.417969 23.90625 C 20.632812 26.621094 21.851562 29.347656 21.980469 32.082031 Z M 21.980469 32.089844 " fill-opacity="1" fill-rule="evenodd"/><g clip-path="url(#c1f9d8e1bd)"><g clip-path="url(#ff77567446)"><g transform="matrix(1, 0, 0, 1, 25, 18)"><g clip-path="url(#9d7880fb8c)"><g clip-path="url(#fcb99141ab)"><g clip-path="url(#280adbfeed)"><path fill="#698eb9" d="M 0.171875 0.355469 L 14.222656 0.355469 L 14.222656 14.40625 L 0.171875 14.40625 Z M 0.171875 0.355469 " fill-opacity="1" fill-rule="nonzero"/></g></g></g></g></g></g></svg>