<?xml version="1.0" encoding="UTF-8" standalone="no"?>
<!DOCTYPE svg PUBLIC "-//W3C//DTD SVG 1.1//EN" "http://www.w3.org/Graphics/SVG/1.1/DTD/svg11.dtd">
<svg width="100%" height="100%" viewBox="0 0 167 148" version="1.1" xmlns="http://www.w3.org/2000/svg" xmlns:xlink="http://www.w3.org/1999/xlink" xml:space="preserve" xmlns:serif="http://www.serif.com/" style="fill-rule:evenodd;clip-rule:evenodd;stroke-linejoin:round;stroke-miterlimit:2;">
    <g transform="matrix(1.333333,0,0,1.333333,0,0.000003)">
        <path d="M100.109,46.598L84.945,32.906L82.586,36.555C82.332,36.945 81.934,37.223 81.477,37.32L69.977,39.785L97.441,45.68C98.383,45.883 99.273,46.199 100.109,46.598Z" style="fill:rgb(105,142,185);fill-rule:nonzero;"/>
    </g>
    <g transform="matrix(1.333333,0,0,1.333333,0,0.000003)">
        <path d="M114.625,49.852L105.824,8.844C105.332,6.547 103.969,4.574 101.996,3.297C100.02,2.02 97.664,1.586 95.367,2.082L27.277,16.695C24.98,17.188 23.008,18.547 21.73,20.52C20.453,22.496 20.023,24.848 20.516,27.148L21.559,32.008C23.16,31.25 24.914,30.793 26.758,30.793C27.621,30.793 28.5,30.883 29.348,31.062L37.504,32.816L32.793,29.77C31.973,29.242 31.738,28.148 32.266,27.336C32.797,26.52 33.887,26.289 34.703,26.812L47.207,34.898L61.582,37.984L80.02,34.027L92.738,14.355C93.266,13.543 94.355,13.305 95.172,13.832C95.992,14.359 96.227,15.453 95.695,16.266L86.879,29.902L105.543,46.754C106.266,47.406 106.32,48.52 105.668,49.242C105.305,49.641 104.777,49.871 104.27,49.809C106.629,52.621 107.73,56.449 106.902,60.312L106.859,60.516L107.859,60.297C112.605,59.277 115.637,54.59 114.621,49.844L114.625,49.852Z" style="fill:rgb(105,142,185);fill-rule:nonzero;"/>
    </g>
    <g transform="matrix(1.333333,0,0,1.333333,0,0.000003)">
        <path d="M62.852,65.238C61.5,64.801 59.957,64.926 58.715,65.559C57.973,65.938 57.062,65.742 56.539,65.094C55.664,64 54.301,63.258 52.891,63.102C52.723,63.086 52.559,63.074 52.398,63.074C50.988,63.074 49.723,63.789 48.945,65.047C48.402,65.922 48.055,67.184 48.383,68.488C48.387,68.5 48.391,68.52 48.395,68.531C48.504,68.957 48.684,69.387 48.957,69.809L53.395,76.672C54.117,77.789 55.617,78.117 56.742,77.398L63.645,72.969C64.074,72.695 64.418,72.379 64.695,72.035C64.707,72.02 64.719,72.004 64.73,71.992C65.562,70.934 65.762,69.645 65.629,68.625C65.406,66.988 64.367,65.727 62.84,65.246L62.852,65.238Z" style="fill:rgb(105,142,185);fill-rule:nonzero;"/>
    </g>
    <g transform="matrix(1.333333,0,0,1.333333,0,0.000003)">
        <path d="M96.707,49.125L28.613,34.512C23.855,33.488 19.176,36.527 18.156,41.273L9.355,82.285C8.863,84.582 9.293,86.938 10.57,88.914C11.848,90.891 13.82,92.25 16.117,92.742L84.211,107.355C84.832,107.484 85.449,107.551 86.059,107.551C90.121,107.551 93.781,104.723 94.668,100.598L103.469,59.59C104.484,54.844 101.453,50.148 96.707,49.133L96.707,49.125ZM91.188,62.203L77.555,71.02L87.656,94.043C88.051,94.934 87.641,95.973 86.754,96.363C86.527,96.465 86.285,96.516 86.047,96.516C85.367,96.516 84.723,96.121 84.43,95.461L74.555,72.961L70.906,75.32C70.621,75.504 70.285,75.602 69.949,75.602C69.828,75.602 69.703,75.586 69.582,75.562L66.762,74.957C66.395,75.309 66,75.645 65.555,75.93L58.652,80.359C57.664,80.996 56.551,81.297 55.453,81.297C53.496,81.297 51.582,80.34 50.445,78.582L46.008,71.719C45.727,71.281 45.512,70.824 45.32,70.359L42.504,69.754C42.047,69.656 41.648,69.379 41.395,68.988L39.035,65.34L20.793,81.809C20.457,82.113 20.035,82.262 19.613,82.262C19.133,82.262 18.652,82.062 18.305,81.68C17.652,80.957 17.711,79.844 18.434,79.195L37.098,62.34L28.277,48.703C27.75,47.887 27.984,46.797 28.801,46.27C29.621,45.742 30.707,45.977 31.238,46.793L43.957,66.461L44.785,66.637C44.902,65.441 45.285,64.258 45.957,63.18C47.539,60.633 50.344,59.262 53.285,59.598C55.145,59.801 56.965,60.641 58.363,61.902C60.145,61.328 62.145,61.305 63.922,61.879C66.734,62.762 68.734,65.16 69.137,68.148C69.301,69.41 69.168,70.645 68.785,71.789L69.609,71.965L89.281,59.246C90.102,58.715 91.188,58.949 91.719,59.77C92.246,60.586 92.012,61.676 91.191,62.203L91.188,62.203Z" style="fill:rgb(105,142,185);fill-rule:nonzero;"/>
    </g>
</svg>
