<svg xmlns="http://www.w3.org/2000/svg" xmlns:xlink="http://www.w3.org/1999/xlink" width="167" zoomAndPan="magnify" viewBox="0 0 125.25 110.999996" height="148" preserveAspectRatio="xMidYMid meet" version="1.0"><defs><clipPath id="f903fb5012"><path d="M 32.226562 76.722656 L 46.355469 76.722656 L 46.355469 90.851562 L 32.226562 90.851562 Z M 32.226562 76.722656 " clip-rule="nonzero"/></clipPath><clipPath id="7b5bf497db"><path d="M 39.289062 76.722656 C 35.386719 76.722656 32.226562 79.886719 32.226562 83.789062 C 32.226562 87.6875 35.386719 90.851562 39.289062 90.851562 C 43.191406 90.851562 46.355469 87.6875 46.355469 83.789062 C 46.355469 79.886719 43.191406 76.722656 39.289062 76.722656 Z M 39.289062 76.722656 " clip-rule="nonzero"/></clipPath><clipPath id="a927f8fef4"><path d="M 0.226562 0.722656 L 14.355469 0.722656 L 14.355469 14.851562 L 0.226562 14.851562 Z M 0.226562 0.722656 " clip-rule="nonzero"/></clipPath><clipPath id="2bb386deca"><path d="M 7.289062 0.722656 C 3.386719 0.722656 0.226562 3.886719 0.226562 7.789062 C 0.226562 11.6875 3.386719 14.851562 7.289062 14.851562 C 11.191406 14.851562 14.355469 11.6875 14.355469 7.789062 C 14.355469 3.886719 11.191406 0.722656 7.289062 0.722656 Z M 7.289062 0.722656 " clip-rule="nonzero"/></clipPath><clipPath id="0cc118008a"><rect x="0" width="15" y="0" height="15"/></clipPath></defs><path fill="#698eb9" d="M 100.109375 46.597656 L 84.945312 32.90625 L 82.585938 36.554688 C 82.332031 36.945312 81.933594 37.222656 81.476562 37.320312 L 69.976562 39.785156 L 97.441406 45.679688 C 98.382812 45.882812 99.273438 46.199219 100.109375 46.597656 Z M 100.109375 46.597656 " fill-opacity="1" fill-rule="nonzero"/><path fill="#698eb9" d="M 114.625 49.851562 L 105.824219 8.84375 C 105.332031 6.546875 103.96875 4.574219 101.996094 3.296875 C 100.019531 2.019531 97.664062 1.585938 95.367188 2.082031 L 27.277344 16.695312 C 24.980469 17.1875 23.007812 18.546875 21.730469 20.519531 C 20.453125 22.496094 20.023438 24.847656 20.515625 27.148438 L 21.558594 32.007812 C 23.160156 31.25 24.914062 30.792969 26.757812 30.792969 C 27.621094 30.792969 28.5 30.882812 29.347656 31.0625 L 37.503906 32.816406 L 32.792969 29.769531 C 31.972656 29.242188 31.738281 28.148438 32.265625 27.335938 C 32.796875 26.519531 33.886719 26.289062 34.703125 26.8125 L 47.207031 34.898438 L 61.582031 37.984375 L 80.019531 34.027344 L 92.738281 14.355469 C 93.265625 13.542969 94.355469 13.304688 95.171875 13.832031 C 95.992188 14.359375 96.226562 15.453125 95.695312 16.265625 L 86.878906 29.902344 L 105.542969 46.753906 C 106.265625 47.40625 106.320312 48.519531 105.667969 49.242188 C 105.304688 49.640625 104.777344 49.871094 104.269531 49.808594 C 106.628906 52.621094 107.730469 56.449219 106.902344 60.3125 L 106.859375 60.515625 L 107.859375 60.296875 C 112.605469 59.277344 115.636719 54.589844 114.621094 49.84375 Z M 114.625 49.851562 " fill-opacity="1" fill-rule="nonzero"/><path fill="#698eb9" d="M 62.851562 65.238281 C 61.5 64.800781 59.957031 64.925781 58.714844 65.558594 C 57.972656 65.9375 57.0625 65.742188 56.539062 65.09375 C 55.664062 64 54.300781 63.257812 52.890625 63.101562 C 52.722656 63.085938 52.558594 63.074219 52.398438 63.074219 C 50.988281 63.074219 49.722656 63.789062 48.945312 65.046875 C 48.402344 65.921875 48.054688 67.183594 48.382812 68.488281 C 48.386719 68.5 48.390625 68.519531 48.394531 68.53125 C 48.503906 68.957031 48.683594 69.386719 48.957031 69.808594 L 53.394531 76.671875 C 54.117188 77.789062 55.617188 78.117188 56.742188 77.398438 L 63.644531 72.96875 C 64.074219 72.695312 64.417969 72.378906 64.695312 72.035156 C 64.707031 72.019531 64.71875 72.003906 64.730469 71.992188 C 65.5625 70.933594 65.761719 69.644531 65.628906 68.625 C 65.40625 66.988281 64.367188 65.726562 62.839844 65.246094 Z M 62.851562 65.238281 " fill-opacity="1" fill-rule="nonzero"/><path fill="#698eb9" d="M 96.707031 49.125 L 28.613281 34.511719 C 23.855469 33.488281 19.175781 36.527344 18.15625 41.273438 L 9.355469 82.285156 C 8.863281 84.582031 9.292969 86.9375 10.570312 88.914062 C 11.847656 90.890625 13.820312 92.25 16.117188 92.742188 L 84.210938 107.355469 C 84.832031 107.484375 85.449219 107.550781 86.058594 107.550781 C 90.121094 107.550781 93.78125 104.722656 94.667969 100.597656 L 103.46875 59.589844 C 104.484375 54.84375 101.453125 50.148438 96.707031 49.132812 Z M 91.1875 62.203125 L 77.554688 71.019531 L 87.65625 94.042969 C 88.050781 94.933594 87.640625 95.972656 86.753906 96.363281 C 86.527344 96.464844 86.285156 96.515625 86.046875 96.515625 C 85.367188 96.515625 84.722656 96.121094 84.429688 95.460938 L 74.554688 72.960938 L 70.90625 75.320312 C 70.621094 75.503906 70.285156 75.601562 69.949219 75.601562 C 69.828125 75.601562 69.703125 75.585938 69.582031 75.5625 L 66.761719 74.957031 C 66.394531 75.308594 66 75.644531 65.554688 75.929688 L 58.652344 80.359375 C 57.664062 80.996094 56.550781 81.296875 55.453125 81.296875 C 53.496094 81.296875 51.582031 80.339844 50.445312 78.582031 L 46.007812 71.71875 C 45.726562 71.28125 45.511719 70.824219 45.320312 70.359375 L 42.503906 69.753906 C 42.046875 69.65625 41.648438 69.378906 41.394531 68.988281 L 39.035156 65.339844 L 20.792969 81.808594 C 20.457031 82.113281 20.035156 82.261719 19.613281 82.261719 C 19.132812 82.261719 18.652344 82.0625 18.304688 81.679688 C 17.652344 80.957031 17.710938 79.84375 18.433594 79.195312 L 37.097656 62.339844 L 28.277344 48.703125 C 27.75 47.886719 27.984375 46.796875 28.800781 46.269531 C 29.621094 45.742188 30.707031 45.976562 31.238281 46.792969 L 43.957031 66.460938 L 44.785156 66.636719 C 44.902344 65.441406 45.285156 64.257812 45.957031 63.179688 C 47.539062 60.632812 50.34375 59.261719 53.285156 59.597656 C 55.144531 59.800781 56.964844 60.640625 58.363281 61.902344 C 60.144531 61.328125 62.144531 61.304688 63.921875 61.878906 C 66.734375 62.761719 68.734375 65.160156 69.136719 68.148438 C 69.300781 69.410156 69.167969 70.644531 68.785156 71.789062 L 69.609375 71.964844 L 89.28125 59.246094 C 90.101562 58.714844 91.1875 58.949219 91.71875 59.769531 C 92.246094 60.585938 92.011719 61.675781 91.191406 62.203125 Z M 91.1875 62.203125 " fill-opacity="1" fill-rule="nonzero"/><g clip-path="url(#f903fb5012)"><g clip-path="url(#7b5bf497db)"><g transform="matrix(1, 0, 0, 1, 32, 76)"><g clip-path="url(#0cc118008a)"><g clip-path="url(#a927f8fef4)"><g clip-path="url(#2bb386deca)"><path fill="#698eb9" d="M 0.226562 0.722656 L 14.355469 0.722656 L 14.355469 14.851562 L 0.226562 14.851562 Z M 0.226562 0.722656 " fill-opacity="1" fill-rule="nonzero"/></g></g></g></g></g></g></svg>